<svg width="28" height="28" viewBox="0 0 28 28" fill="none" xmlns="http://www.w3.org/2000/svg">
<path fill-rule="evenodd" clip-rule="evenodd" d="M4.95837 9.93391C4.95837 5.19491 9.06674 1.4585 14 1.4585C18.9333 1.4585 23.0417 5.19491 23.0417 9.93391C23.0417 14.3803 20.285 19.6002 15.8373 21.5009C14.6697 21.9999 13.3304 21.9999 12.1628 21.5009C7.71508 19.6002 4.95837 14.3803 4.95837 9.93391ZM14 3.2085C9.91268 3.2085 6.70837 6.27772 6.70837 9.93391C6.70837 13.817 9.16471 18.3166 12.8505 19.8917C13.5789 20.203 14.4212 20.203 15.1496 19.8917C18.8354 18.3166 21.2917 13.817 21.2917 9.93391C21.2917 6.27772 18.0873 3.2085 14 3.2085ZM14 9.04183C13.1946 9.04183 12.5417 9.69474 12.5417 10.5002C12.5417 11.3056 13.1946 11.9585 14 11.9585C14.8055 11.9585 15.4584 11.3056 15.4584 10.5002C15.4584 9.69474 14.8055 9.04183 14 9.04183ZM10.7917 10.5002C10.7917 8.72825 12.2281 7.29183 14 7.29183C15.772 7.29183 17.2084 8.72825 17.2084 10.5002C17.2084 12.2721 15.772 13.7085 14 13.7085C12.2281 13.7085 10.7917 12.2721 10.7917 10.5002ZM4.19469 17.4962C4.51905 17.8544 4.49161 18.4077 4.1334 18.732C3.4711 19.3318 3.20837 19.9059 3.20837 20.4168C3.20837 21.3078 4.05305 22.4058 6.10954 23.3312C8.08387 24.2197 10.8728 24.7918 14 24.7918C17.1273 24.7918 19.9162 24.2197 21.8906 23.3312C23.947 22.4058 24.7917 21.3078 24.7917 20.4168C24.7917 19.9059 24.529 19.3318 23.8667 18.732C23.5085 18.4077 23.4811 17.8544 23.8054 17.4962C24.1297 17.1379 24.6831 17.1105 25.0413 17.4349C25.9315 18.241 26.5417 19.2514 26.5417 20.4168C26.5417 22.4254 24.7747 23.9524 22.6086 24.927C20.3605 25.9388 17.3162 26.5418 14 26.5418C10.684 26.5418 7.63955 25.9388 5.39139 24.927C3.22537 23.9524 1.45837 22.4254 1.45837 20.4168C1.45837 19.2514 2.0686 18.241 2.95877 17.4349C3.31698 17.1105 3.87032 17.1379 4.19469 17.4962Z" fill="#1F5C3A"/>
</svg>
