<svg width="16" height="16" viewBox="0 0 16 16" fill="none" xmlns="http://www.w3.org/2000/svg">
<path d="M5.99996 7.33317C6.73634 7.33317 7.33329 6.73622 7.33329 5.99984C7.33329 5.26346 6.73634 4.6665 5.99996 4.6665C5.26358 4.6665 4.66663 5.26346 4.66663 5.99984C4.66663 6.73622 5.26358 7.33317 5.99996 7.33317Z" stroke="white"/>
<path d="M8.66671 9.99984C8.66671 10.7362 8.66671 11.3332 6.00004 11.3332C3.33337 11.3332 3.33337 10.7362 3.33337 9.99984C3.33337 9.26344 4.52728 8.6665 6.00004 8.6665C7.47277 8.6665 8.66671 9.26344 8.66671 9.99984Z" stroke="white"/>
<path d="M1.33337 7.99984C1.33337 5.48568 1.33337 4.2286 2.11442 3.44755C2.89547 2.6665 4.15255 2.6665 6.66671 2.6665H9.33337C11.8475 2.6665 13.1046 2.6665 13.8856 3.44755C14.6667 4.2286 14.6667 5.48568 14.6667 7.99984C14.6667 10.514 14.6667 11.7711 13.8856 12.5521C13.1046 13.3332 11.8475 13.3332 9.33337 13.3332H6.66671C4.15255 13.3332 2.89547 13.3332 2.11442 12.5521C1.33337 11.7711 1.33337 10.514 1.33337 7.99984Z" stroke="white"/>
<path d="M12.6667 8H10" stroke="white" stroke-linecap="round"/>
<path d="M12.6667 6H9.33337" stroke="white" stroke-linecap="round"/>
<path d="M12.6666 10H10.6666" stroke="white" stroke-linecap="round"/>
</svg>
