<svg xmlns="http://www.w3.org/2000/svg" fill="none" viewBox="0 0 24 24" height="24" width="24">
  <g id="notification-clock">
    <path id="Union" fill="#000000" d="M10 21c0 1.1046 -0.89543 2 -2 2s-2 -0.8954 -2 -2zM8 6c0.55228 0 1 0.44772 1 1v0.5918c2.56 0.47033 4.5 2.7122 4.5 5.4082v5h0.5c0.5523 0 1 0.4477 1 1s-0.4477 1 -1 1H2c-0.55228 0 -1 -0.4477 -1 -1s0.44772 -1 1 -1h0.5v-5c0 -2.696 1.93998 -4.93787 4.5 -5.4082V7c0 -0.55228 0.44772 -1 1 -1m0 3.5c-1.933 0 -3.5 1.567 -3.5 3.5v5h7v-5c0 -1.933 -1.567 -3.5 -3.5 -3.5M18 1c1.3833 0 2.5621 0.48789 3.5371 1.46289S23 4.61667 23 6s-0.4879 2.56211 -1.4629 3.53711C20.5621 10.5121 19.3833 11 18 11s-2.5621 -0.4879 -3.5371 -1.46289C13.4879 8.56211 13 7.38333 13 6s0.4879 -2.56211 1.4629 -3.53711S16.6167 1 18 1m0 2.25c-0.4142 0 -0.75 0.33579 -0.75 0.75v2c0 0.19891 0.0791 0.38962 0.2197 0.53027l1.25 1.25c0.2929 0.2929 0.7677 0.2929 1.0606 0 0.2929 -0.29289 0.2929 -0.76765 0 -1.06054L18.75 5.68945V4c0 -0.41421 -0.3358 -0.75 -0.75 -0.75" stroke-width="1"></path>
  </g>
</svg>